# xmcd
#
# Track frame offsets: 
#        150
#        15345
#        39935
#        58697
#        75333
#        93758
#        109167
#        126604
#        143728
#        160355
#        174028
#        189525
#        199942
#        211841
#        228478
#        246421
#        267188
#        285183
#        303484
#        322741
#
# Disc length: 4608 seconds
#
# Revision: 2
# Processed by: cddbd v1.5.2PL0 Copyright (c) Steve Scherf et al.
# Submitted via: ExactAudioCopy v0.99pb5
#
DISCID=0411fe14
DTITLE=George Baker Selection - 100 - CD 4
DYEAR=2008
DGENRE=Pop
TTITLE0=Oh baby
TTITLE1=Wild flower
TTITLE2=Goodbye
TTITLE3=Sunshine
TTITLE4=Jessalina
TTITLE5=Say you love me
TTITLE6=Heart of my heart
TTITLE7=If you're lonely
TTITLE8=We'll make it right someday
TTITLE9=Funny girl
TTITLE10=Un melody d'amour
TTITLE11=Take me to the river
TTITLE12=Sweetheart, sweetheart
TTITLE13=Lady of the river
TTITLE14=Israel
TTITLE15=I've been away too long
TTITLE16=True love
TTITLE17=Some lovers
TTITLE18=Wasted love
TTITLE19=Paris nights
EXTD=cd 4
EXTT0=
EXTT1=
EXTT2=
EXTT3=
EXTT4=
EXTT5=
EXTT6=
EXTT7=
EXTT8=
EXTT9=
EXTT10=
EXTT11=
EXTT12=
EXTT13=
EXTT14=
EXTT15=
EXTT16=
EXTT17=
EXTT18=
EXTT19=
PLAYORDER=
